<svg width="113" height="248" viewBox="0 0 113 248" fill="none" xmlns="http://www.w3.org/2000/svg">
    <rect x="0.975098" y="136.468" width="112.025" height="111.532" fill="#323033"/>
    <rect x="0.974121" width="112.025" height="111.532" fill="#323033"/>
    <path d="M94.3244 32.4284C93.6145 31.9751 91.8341 31.3902 90.3965 31.1376C89.3074 30.9464 86.7493 30.8016 86.1834 30.8993C86.0143 30.9285 85.4885 31.013 85.0151 31.087C82.9846 31.4047 80.7943 32.5312 79.6277 33.8579C78.4677 35.1772 77.8198 36.8665 77.8223 38.565C77.825 40.4506 78.5435 42.1863 79.8882 43.5556C80.8975 44.5836 82.2494 45.3158 84.4616 46.0329C85.3071 46.307 86.7041 46.7578 87.5659 47.0348C89.583 47.683 90.4564 48.1333 91.0798 48.8464C92.399 50.3549 91.8457 52.6043 89.9085 53.6083C87.6845 54.7609 83.2444 54.5214 79.7362 53.0595C77.7856 52.2465 77.4136 52.4847 77.4814 54.5034C77.5279 55.8896 77.6719 56.1802 78.577 56.7156C80.4645 57.8319 84.0545 58.5362 87.155 58.3983C90.4362 58.2523 92.8295 57.3181 94.5555 55.5093C96.0665 53.9259 96.6548 52.4872 96.6742 50.3285C96.689 48.6873 96.415 47.6975 95.5909 46.4152C94.5196 44.748 93.2905 44.046 88.913 42.6013C84.4629 41.1324 83.5262 40.633 82.9736 39.4341C82.4423 38.2815 82.8528 36.6449 83.8568 35.9127C85.6206 34.6264 90.3023 34.661 93.191 35.9816C93.5617 36.1512 94.0936 36.3214 94.373 36.3599C95.1248 36.4636 95.2838 36.1731 95.2838 34.696C95.2838 33.3039 95.1313 32.9435 94.3244 32.4284Z" fill="white"/>
    <path d="M45.5596 32.4796C45.4606 32.287 45.2596 32.0201 45.113 31.8865C44.8773 31.6716 44.6242 31.6384 42.9176 31.5989C41.2808 31.5609 40.9468 31.5847 40.712 31.7561C40.3118 32.0484 40.3531 32.7212 40.8758 34.4202C41.1167 35.2032 41.3596 36.011 41.4154 36.2153C41.5364 36.6569 42.4111 39.5658 43.6304 43.5814C44.1162 45.1815 44.559 46.6578 44.6142 46.8621C44.6696 47.0664 44.9971 48.1667 45.3421 49.3071C45.6871 50.4476 46.2506 52.314 46.5944 53.4544C46.9382 54.5949 47.3029 55.8023 47.4049 56.1374C47.8291 57.5325 48.147 57.6946 50.4581 57.6946C52.2804 57.6946 52.8159 57.5651 53.1562 57.0424C53.3425 56.7561 53.6391 55.6119 54.8161 50.638C55.0979 49.4464 55.4678 47.8865 55.6379 47.1716C57.1895 40.6508 57.4991 39.3334 57.5871 38.877C57.7185 38.196 57.7841 38.0104 57.8941 38.0104C57.9503 38.0104 58.1732 38.7765 58.3896 39.7126C58.6058 40.6489 58.995 42.2784 59.2543 43.3338C59.7139 45.2042 59.8723 45.8641 60.7842 49.7095C61.0265 50.7308 61.2781 51.7615 61.3435 51.9998C61.4088 52.2381 61.6826 53.3658 61.9518 54.5059C62.221 55.646 62.5295 56.7506 62.6375 56.9607C62.9494 57.5678 63.4319 57.6947 65.4268 57.6941C66.9518 57.6937 67.235 57.6618 67.5768 57.4519C68.1407 57.1059 68.1944 56.9727 69.5265 52.6188C69.6827 52.1081 70.1419 50.6318 70.5469 49.3381C70.9518 48.0444 71.4873 46.3174 71.7366 45.5003C71.986 44.6832 72.355 43.4854 72.5567 42.8386C72.7585 42.1917 72.9747 41.4954 73.0373 41.2911C73.1543 40.9093 73.8313 38.7282 74.4782 36.6486C75.7913 32.4285 75.814 32.3234 75.5001 31.9335C75.2645 31.641 75.2191 31.6347 73.3677 31.6347C72.1642 31.6347 71.526 31.6048 71.1063 31.8919C70.5826 32.2501 70.3991 33.1021 69.882 35.1219C69.5713 36.336 69.1792 37.8587 69.011 38.5056C68.3577 41.017 66.7185 47.4204 65.9053 50.638C65.7246 51.3529 65.5263 51.9379 65.4645 51.9379C65.4029 51.9379 65.2252 51.3808 65.0698 50.6999C64.9143 50.019 64.5945 48.6541 64.3591 47.6668C63.8252 45.4287 62.7173 40.6779 62.0059 37.5771C60.7991 32.3169 60.7552 32.1736 60.2463 31.8378C59.9941 31.6715 59.5919 31.6347 58.0266 31.6347C55.5916 31.6347 55.3514 31.7606 55.0048 33.2178C54.9205 33.5728 54.5668 35.0887 54.2189 36.5867C53.8708 38.0847 53.453 39.8674 53.2901 40.5483C53.1274 41.2292 52.8585 42.3712 52.6927 43.0862C52.5269 43.8011 52.1366 45.4724 51.8253 46.8002C51.5141 48.128 51.1331 49.7714 50.9785 50.4523C50.824 51.1332 50.6452 51.6795 50.5812 51.6663C50.5171 51.6532 49.9291 49.5083 49.2745 46.9C48.6199 44.2918 47.5567 40.0589 46.912 37.4939C46.2671 34.9288 45.6586 32.6724 45.5596 32.4796Z" fill="white"/>
    <path d="M100.025 65.2582C99.8078 64.8364 98.9434 64.4366 97.7012 64.184C97.2172 64.0855 95.8803 63.9828 94.7304 63.9557C92.5632 63.9047 92.389 63.9133 90.8566 64.1477C90.0372 64.273 89.6031 64.3716 88.2125 64.749C87.5724 64.9227 86.8728 65.2051 86.0539 65.6202C84.3801 66.4687 83.7366 67.1048 84.1027 67.5487C84.1294 67.5811 84.1469 67.609 84.1695 67.6319C84.3037 67.7681 84.6168 67.7294 88.0896 67.418C92.8213 66.9936 95.319 67.2749 95.9891 68.3076C96.3414 68.8503 96.2578 70.567 95.7943 72.3097C95.4141 73.7393 94.6321 76.06 93.8779 77.9978C93.3704 79.3016 93.3192 79.5198 93.4613 79.7753C93.9486 80.6518 96.2471 78.4142 97.8398 75.5128C98.4688 74.3668 99.2852 72.2732 99.6627 70.8375C100.2 68.7935 100.384 65.9583 100.025 65.2582Z" fill="white"/>
    <path d="M16.0855 66.6684C15.3753 66.2739 14.6559 65.8766 14.4868 65.7853C13.4783 65.241 12.7945 66.1601 13.5798 67.0044C14.1074 67.5717 16.5699 69.623 18.1762 70.8333C20.4005 72.5093 22.7026 74.0113 25.3704 75.5275C25.966 75.866 29.4326 77.6079 30.2896 77.9992C32.2892 78.9126 36.2122 80.3373 38.7751 81.0811C45.0691 82.9075 52.8298 83.8055 59.3237 83.4589C62.9761 83.2639 65.9631 82.928 68.2285 82.4576C68.5328 82.3945 69.1139 82.2762 69.5197 82.195C74.3336 81.2311 79.5241 79.5327 83.7071 77.5525C84.3403 77.2527 84.8799 77.0074 84.906 77.0074C85.0066 77.0074 88.2861 75.1447 89.2687 74.5294C90.9582 73.4717 92.2203 72.5169 92.4051 72.1573C92.6758 71.6303 92.6176 71.2095 92.2188 70.8079C91.7315 70.3174 91.0658 70.3218 89.859 70.8241C84.2627 73.1528 76.5686 75.3637 71.3805 76.1341C70.9659 76.1958 70.0455 76.3369 69.3353 76.448C65.4784 77.0508 62.1036 77.2673 56.9759 77.2409C54.6086 77.2287 52.1736 77.1728 51.5649 77.1167C47.2023 76.715 46.6724 76.6505 43.5098 76.1361C39.0706 75.4141 34.9715 74.4058 30.351 72.8991C28.3155 72.2354 24.9956 70.9842 23.5257 70.3265C23.2552 70.2056 22.5634 69.897 21.9885 69.6408C20.5784 69.0126 17.6661 67.5461 16.0855 66.6684Z" fill="white"/>
    <path fill-rule="evenodd" clip-rule="evenodd" d="M29.6132 30.958C34.2553 31.4497 36.6605 33.4882 37.5688 37.7009C37.7166 38.3862 37.7729 39.9917 37.838 45.3765C37.9024 50.7008 37.9568 52.2665 38.0871 52.5569C38.1789 52.7612 38.4459 53.3461 38.6805 53.8568C39.1794 54.943 39.2862 55.4544 39.0907 55.8222C39.0128 55.9687 38.4123 56.4499 37.7562 56.8915C36.4616 57.7631 35.872 57.9069 35.2864 57.494C34.9061 57.2259 34.052 56.0357 33.6715 55.2435C33.5024 54.8914 33.2986 54.6026 33.2187 54.6016C33.1387 54.6005 32.7513 54.9105 32.3578 55.2905C30.8544 56.7422 29.0078 57.707 26.9158 58.1337C25.4843 58.4256 23.0027 58.3322 21.8655 57.9433C20.4866 57.4719 19.7526 57.0399 18.9187 56.209C17.416 54.7116 16.7779 53.01 16.7833 50.5142C16.7863 49.1621 16.8288 48.8417 17.1205 47.9763C17.6706 46.3445 18.3498 45.3665 19.6785 44.293C20.8775 43.3243 22.1727 42.7646 24.0537 42.4022C25.7691 42.0718 28.8036 42.2088 31.3349 42.731C31.7069 42.8078 32.205 42.8773 32.4417 42.8855L32.8721 42.9005L32.8474 41.2128C32.7889 37.2108 31.8343 35.7881 28.8155 35.2035C27.6329 34.9744 25.6037 35.0354 24.1602 35.3434C23.0751 35.5749 21.1935 36.1685 20.4513 36.5135C20.1807 36.6393 19.7317 36.7804 19.4534 36.8272C18.847 36.9291 18.5959 36.7374 18.4732 36.0789C18.3342 35.3336 18.4798 33.7342 18.7202 33.3649C19.186 32.6494 22.5511 31.4053 24.8785 31.0884C26.903 30.8127 27.9646 30.7834 29.6132 30.958ZM22.9802 47.3722C23.655 46.629 24.3914 46.2515 25.6648 45.996C26.7634 45.7756 28.2904 45.7733 29.9868 45.9893C31.9046 46.2336 32.7167 46.4029 32.8416 46.585C32.979 46.7851 32.8412 49.0475 32.6382 49.927C32.216 51.7549 30.4994 53.3848 28.3557 53.9929C26.8974 54.4066 24.9043 54.4075 23.9897 53.995C22.6312 53.3822 21.9378 52.1189 21.9435 50.2666C21.9473 48.9973 22.2357 48.1923 22.9802 47.3722Z" fill="white"/>
    <path d="M84.381 180.133C84.2471 180.058 84.1038 179.999 83.9448 179.971C83.3273 179.86 82.7246 179.803 82.135 179.773C79.158 168.953 69.0729 161.211 57.7266 161.211C43.7615 161.211 32.4004 172.516 32.4004 186.412C32.4004 187.168 32.4394 187.929 32.5157 188.706C31.6433 188.486 30.7049 188.371 29.7107 188.429C29.7042 188.429 29.6968 188.428 29.6903 188.428C29.6726 188.428 29.6559 188.431 29.6382 188.431C29.6215 188.432 29.6057 188.431 29.588 188.432C29.5843 188.432 29.5796 188.433 29.5759 188.433C21.9339 188.494 15.7354 194.694 15.7354 202.314C15.7354 209.972 21.9953 216.203 29.6894 216.203H45.3546C45.4504 216.203 45.5425 216.193 45.6327 216.175C45.7034 216.186 45.774 216.196 45.8475 216.196C57.2616 216.196 59.6583 208.366 59.6583 201.797V200.442L63.7432 203.795C63.7432 203.795 65.141 201.938 65.4154 201.573L59.1738 196.611C59.1617 196.602 59.1486 196.597 59.1366 196.589C59.0938 196.559 59.0501 196.535 59.0045 196.51C58.9673 196.49 58.9301 196.469 58.892 196.453C58.851 196.435 58.8092 196.422 58.7664 196.409C58.7218 196.394 58.6771 196.379 58.6315 196.37C58.5906 196.36 58.5488 196.356 58.5069 196.35C58.4604 196.345 58.4139 196.338 58.3674 196.337C58.3237 196.336 58.2791 196.34 58.2354 196.344C58.1907 196.348 58.1461 196.349 58.1024 196.358C58.0577 196.365 58.0131 196.377 57.9694 196.389C57.9266 196.401 57.8838 196.411 57.842 196.428C57.801 196.444 57.761 196.463 57.7211 196.484C57.6783 196.505 57.6355 196.526 57.5946 196.552C57.5806 196.56 57.5657 196.566 57.5518 196.574L51.0376 201.5C51.3073 201.895 52.6075 203.795 52.6075 203.795L56.8673 200.395V201.797C56.8673 209.725 53.3658 213.42 45.8466 213.42C45.7508 213.42 45.6587 213.43 45.5685 213.447C45.4978 213.436 45.4271 213.426 45.3537 213.426H29.6894C23.5336 213.426 18.5254 208.441 18.5254 202.314C18.5254 196.187 23.5336 191.204 29.6894 191.204C30.5831 191.204 31.4908 191.333 32.3985 191.569C34.704 192.348 36.3297 194.051 36.3669 194.092C36.7017 194.092 38.16 192.463 38.4278 192.219C38.345 192.129 37.2532 190.964 35.5057 189.944C35.3057 188.72 35.1904 187.553 35.1904 186.411C35.1904 174.047 45.3007 163.987 57.7266 163.987C67.6081 163.987 76.4051 170.59 79.2594 179.899C75.6602 180.396 73.124 181.971 72.978 182.063C73.244 182.479 74.4772 184.405 74.4772 184.405C74.5098 184.385 77.098 182.794 80.5623 182.558L81.0404 182.561C89.5231 182.634 96.4247 189.553 96.4247 197.987C96.4247 206.499 89.4682 213.424 80.9157 213.424H69.1817V216.201H80.9148C91.0055 216.201 99.2139 208.031 99.2139 197.987C99.2139 189.166 92.807 181.762 84.381 180.133Z" fill="white"/>
</svg>
